<?xml version="1.0" encoding="UTF-8" standalone="no"?>
<!-- Created with Inkscape (http://www.inkscape.org/) -->

<svg
   xmlns:dc="http://purl.org/dc/elements/1.1/"
   xmlns:cc="http://creativecommons.org/ns#"
   xmlns:rdf="http://www.w3.org/1999/02/22-rdf-syntax-ns#"
   xmlns:svg="http://www.w3.org/2000/svg"
   xmlns="http://www.w3.org/2000/svg"
   xmlns:sodipodi="http://sodipodi.sourceforge.net/DTD/sodipodi-0.dtd"
   xmlns:inkscape="http://www.inkscape.org/namespaces/inkscape"
   width="26mm"
   height="37mm"
   viewBox="0 0 92.125983 131.10236"
   id="svg3743"
   version="1.1"
   inkscape:version="0.91 r13725"
   sodipodi:docname="arrow.svg">
  <defs
     id="defs3745" />
  <sodipodi:namedview
     id="base"
     pagecolor="#ffffff"
     bordercolor="#666666"
     borderopacity="1.0"
     inkscape:pageopacity="0.0"
     inkscape:pageshadow="2"
     inkscape:zoom="0.35"
     inkscape:cx="1286.4286"
     inkscape:cy="291.42857"
     inkscape:document-units="px"
     inkscape:current-layer="layer1"
     showgrid="false"
     inkscape:window-width="1362"
     inkscape:window-height="727"
     inkscape:window-x="0"
     inkscape:window-y="20"
     inkscape:window-maximized="0"
     units="mm" />
  <metadata
     id="metadata3748">
    <rdf:RDF>
      <cc:Work
         rdf:about="">
        <dc:format>image/svg+xml</dc:format>
        <dc:type
           rdf:resource="http://purl.org/dc/dcmitype/StillImage" />
        <dc:title></dc:title>
      </cc:Work>
    </rdf:RDF>
  </metadata>
  <g
     inkscape:label="Layer 1"
     inkscape:groupmode="layer"
     id="layer1"
     transform="translate(0,-921.25985)">
    <g
       id="g3755"
       transform="matrix(0.2210423,0,0,0.32051762,-14.299105,880.83612)">
      <path
         inkscape:connector-curvature="0"
         d="m 372.31924,518.43094 c -10.77328,-3.43444 -21.50985,-6.97578 -32.24885,-10.51585 -12.05773,-4.07215 -24.15845,-7.90298 -35.81906,-13.03886 -10.76177,-4.42409 -20.53419,-10.11612 -29.15568,-17.92608 -10.05468,-7.63164 -16.72548,-17.988 -22.78109,-28.84748 -7.36652,-13.43731 -9.83444,-28.72334 -11.27732,-43.78182 -1.4902,-16.64069 -2.33784,-33.28136 -1.49964,-49.96983 0.92213,-13.00179 1.5656,-26.01627 1.7867,-39.04884 0,0 36.91505,-18.69033 36.91505,-18.69033 l 0,0 c -0.44729,13.11755 -0.92471,26.2388 -2.02165,39.32185 -1.12689,16.53802 -0.89105,33.11211 0.66289,49.62717 1.79961,14.44519 4.13179,29.04018 11.23777,41.97595 5.67019,10.52958 12.54961,20.11491 22.02763,27.59022 8.61725,7.13092 18.21077,12.51324 28.5282,16.84378 11.55412,5.00399 23.56741,8.70589 35.46046,12.80555 10.8642,3.53325 21.7105,7.40386 32.98562,9.405 0,0 -34.80103,24.24957 -34.80103,24.24957 z"
         id="path3751"
         style="fill:#abe8f0" />
      <path
         inkscape:connector-curvature="0"
         d="m 150.36692,390.53053 c 6.6599,-6.86187 12.23843,-14.71754 18.09583,-22.26672 6.82953,-8.98178 12.17851,-18.94585 17.81175,-28.68897 6.42418,-10.7828 11.98317,-22.02144 17.34471,-33.358 5.70611,-11.8155 11.4023,-23.604 15.6299,-36.03958 3.44742,-10.98721 5.8468,-22.28814 7.03048,-33.74072 2.82592,-18.01273 5.59688,-9.18204 39.25101,-24.9216 1.29202,-0.60426 6.52227,5.77001 7.03931,6.31819 6.86922,7.86575 14.7403,14.74799 22.35472,21.87095 10.38709,9.2193 19.33089,19.85435 28.29519,30.41424 11.02451,12.04652 21.08096,24.89651 31.48015,37.47091 7.42313,9.65858 15.86582,18.45314 24.42541,27.09499 0,0 -35.19201,21.48281 -35.19201,21.48281 l 0,0 c -8.39502,-8.90481 -16.78829,-17.84312 -24.19645,-27.60498 -10.37931,-12.56278 -20.4823,-25.35281 -31.51334,-37.36266 -9.00895,-10.38129 -18.14703,-20.66015 -28.50317,-29.73887 -7.73292,-7.10654 -15.57045,-14.08761 -22.85149,-21.6681 -1.19514,-1.0456 -2.93508,-2.82765 -4.55934,-3.50876 -0.46606,-0.19544 -1.92566,0.009 -1.49461,-0.25445 11.687,-7.15269 23.84043,-13.52061 35.57126,-20.60118 0.45662,-0.27561 -1.21999,-0.2821 -1.59722,0.0949 -0.60144,0.60112 -0.59322,1.59386 -0.88983,2.39079 -1.99512,11.67359 -4.0398,23.33817 -7.44676,34.70952 -3.67627,12.76838 -9.61423,24.59749 -15.3725,36.53746 -5.32052,11.36499 -10.56878,22.76944 -16.98643,33.57433 -5.63843,9.79673 -10.99822,19.78803 -17.43009,29.09618 -5.63055,7.55909 -11.63394,14.84051 -17.15335,22.48568 0,0 -39.14313,16.21361 -39.14313,16.21361 z"
         id="path3753"
         style="fill:#abe8f0" />
    </g>
  </g>
</svg>
