<?xml version="1.0" encoding="UTF-8" standalone="no"?>
<!-- Generator: Adobe Illustrator 15.0.0, SVG Export Plug-In . SVG Version: 6.00 Build 0)  -->

<svg
   xmlns:dc="http://purl.org/dc/elements/1.1/"
   xmlns:cc="http://creativecommons.org/ns#"
   xmlns:rdf="http://www.w3.org/1999/02/22-rdf-syntax-ns#"
   xmlns:svg="http://www.w3.org/2000/svg"
   xmlns="http://www.w3.org/2000/svg"
   xmlns:sodipodi="http://sodipodi.sourceforge.net/DTD/sodipodi-0.dtd"
   xmlns:inkscape="http://www.inkscape.org/namespaces/inkscape"
   version="1.1"
   id="レイヤー_1"
   x="0px"
   y="0px"
   width="74mm"
   height="52mm"
   viewBox="0 0 262.20475 184.25197"
   enable-background="new 0 0 401.98 559.472"
   xml:space="preserve"
   inkscape:version="0.91 r13725"
   sodipodi:docname="gopher_straight_look_rotated.svg"><metadata
     id="metadata3962"><rdf:RDF><cc:Work
         rdf:about=""><dc:format>image/svg+xml</dc:format><dc:type
           rdf:resource="http://purl.org/dc/dcmitype/StillImage" /><dc:title></dc:title></cc:Work></rdf:RDF></metadata><defs
     id="defs3960" /><sodipodi:namedview
     pagecolor="#ffffff"
     bordercolor="#666666"
     borderopacity="1"
     objecttolerance="10"
     gridtolerance="10"
     guidetolerance="10"
     inkscape:pageopacity="0"
     inkscape:pageshadow="2"
     inkscape:window-width="1362"
     inkscape:window-height="727"
     id="namedview3958"
     showgrid="false"
     inkscape:zoom="0.84365261"
     inkscape:cx="246.03224"
     inkscape:cy="279.73599"
     inkscape:window-x="0"
     inkscape:window-y="20"
     inkscape:window-maximized="0"
     inkscape:current-layer="レイヤー_1"
     units="mm"
     width="296mm" /><g
     id="g3605"
     transform="matrix(0,0.42861636,-0.48284298,0,265.53917,9.5634386)"><path
       id="path3904"
       d="m 10.634,300.493 c 0.764,15.751 16.499,8.463 23.626,3.539 6.765,-4.675 8.743,-0.789 9.337,-10.015 0.389,-6.064 1.088,-12.128 0.744,-18.216 -10.23,-0.927 -21.357,1.509 -29.744,7.602 -4.32,3.139 -12.42,13.158 -3.963,17.09"
       inkscape:connector-curvature="0"
       style="clip-rule:evenodd;fill:#f6d2a2;fill-rule:evenodd;stroke:#000000;stroke-width:3;stroke-linecap:round" /><path
       id="path3906"
       d="m 10.634,300.493 c 2.29,-0.852 4.717,-1.457 6.271,-3.528"
       inkscape:connector-curvature="0"
       style="clip-rule:evenodd;fill:#c6b198;fill-rule:evenodd;stroke:#000000;stroke-width:3;stroke-linecap:round" /><path
       id="path3908"
       d="M 46.997,112.853 C -13.3,95.897 31.536,19.189 79.956,50.74 l -32.959,62.113 z"
       inkscape:connector-curvature="0"
       style="clip-rule:evenodd;fill:#6ae5d4;fill-rule:evenodd;stroke:#000000;stroke-width:3;stroke-linecap:round" /><path
       id="path3910"
       d="m 314.895,44.984 c 47.727,-33.523 90.856,42.111 35.388,61.141 L 314.895,44.984 Z"
       inkscape:connector-curvature="0"
       style="clip-rule:evenodd;fill:#6ae5d4;fill-rule:evenodd;stroke:#000000;stroke-width:3;stroke-linecap:round" /><path
       id="path3912"
       d="m 325.161,494.343 c 12.123,7.501 34.282,30.182 16.096,41.18 -17.474,15.999 -27.254,-17.561 -42.591,-22.211 6.605,-8.97 14.977,-17.149 26.495,-18.969 z"
       inkscape:connector-curvature="0"
       style="clip-rule:evenodd;fill:#f6d2a2;fill-rule:evenodd;stroke:#000000;stroke-width:3;stroke-linecap:round" /><path
       id="path3914"
       d="m 341.257,535.522 c -2.696,-5.361 -3.601,-11.618 -8.102,-15.939"
       inkscape:connector-curvature="0"
       style="clip-rule:evenodd;fill:none;fill-rule:evenodd;stroke:#000000;stroke-width:3;stroke-linecap:round" /><path
       id="path3916"
       d="m 108.579,519.975 c -14.229,2.202 -22.238,15.039 -34.1,21.558 -11.178,6.665 -15.454,-2.134 -16.461,-3.92 -1.752,-0.799 -1.605,0.744 -4.309,-1.979 -10.362,-16.354 10.797,-28.308 21.815,-36.432 15.346,-3.102 24.963,10.202 33.055,20.773 z"
       inkscape:connector-curvature="0"
       style="clip-rule:evenodd;fill:#f6d2a2;fill-rule:evenodd;stroke:#000000;stroke-width:3;stroke-linecap:round" /><path
       id="path3918"
       d="m 58.019,537.612 c 0.542,-6.233 5.484,-10.407 7.838,-15.677"
       inkscape:connector-curvature="0"
       style="clip-rule:evenodd;fill:none;fill-rule:evenodd;stroke:#000000;stroke-width:3;stroke-linecap:round" /><path
       id="path3920"
       d="M 49.513,91.667 C 41.558,87.459 35.722,81.744 40.588,72.543 45.093,64.025 53.462,64.95 61.418,69.158 L 49.513,91.667 Z"
       inkscape:connector-curvature="0"
       style="clip-rule:evenodd;fill-rule:evenodd" /><path
       id="path3922"
       d="m 337.716,83.667 c 7.955,-4.208 13.791,-9.923 8.925,-19.124 -4.505,-8.518 -12.874,-7.593 -20.83,-3.385 l 11.905,22.509 z"
       inkscape:connector-curvature="0"
       style="clip-rule:evenodd;fill-rule:evenodd" /><path
       id="path3924"
       d="m 392.475,298.493 c -0.764,15.751 -16.499,8.463 -23.626,3.539 -6.765,-4.675 -8.743,-0.789 -9.337,-10.015 -0.389,-6.064 -1.088,-12.128 -0.744,-18.216 10.23,-0.927 21.357,1.509 29.744,7.602 4.319,3.139 12.42,13.158 3.963,17.09"
       inkscape:connector-curvature="0"
       style="clip-rule:evenodd;fill:#f6d2a2;fill-rule:evenodd;stroke:#000000;stroke-width:3;stroke-linecap:round" /><path
       id="path3926"
       d="m 392.475,298.493 c -2.29,-0.852 -4.717,-1.457 -6.271,-3.528"
       inkscape:connector-curvature="0"
       style="clip-rule:evenodd;fill:#c6b198;fill-rule:evenodd;stroke:#000000;stroke-width:3;stroke-linecap:round" /><g
       id="g3928"><path
         id="path3930"
         d="m 195.512,13.124 c 60.365,0 116.953,8.633 146.452,66.629 26.478,65.006 17.062,135.104 21.1,203.806 3.468,58.992 11.157,127.145 -16.21,181.812 -28.79,57.514 -100.73,71.982 -160,69.863 C 140.299,533.568 84.06,518.38 57.785,475.845 26.959,425.945 41.553,351.747 43.792,296.223 46.444,230.452 25.977,164.481 47.584,100.122 69.999,33.359 130.451,18.271 195.512,13.124"
         inkscape:connector-curvature="0"
         style="clip-rule:evenodd;fill:#6ae5d4;fill-rule:evenodd;stroke:#000000;stroke-width:3;stroke-linecap:round" /></g><path
       id="path3932"
       d="m 206.169,94.16 c 10.838,63.003 113.822,46.345 99.03,-17.197 -13.264,-56.98 -102.632,-41.208 -99.03,17.197"
       inkscape:connector-curvature="0"
       style="clip-rule:evenodd;fill:#ffffff;fill-rule:evenodd;stroke:#000000;stroke-width:2.90809989;stroke-linecap:round" /><path
       id="path3934"
       d="M 83.103,104.35 C 97.15,159.2 184.967,145.157 181.657,90.137 177.691,24.242 69.673,36.957 83.103,104.35"
       inkscape:connector-curvature="0"
       style="clip-rule:evenodd;fill:#ffffff;fill-rule:evenodd;stroke:#000000;stroke-width:2.82139993;stroke-linecap:round" /><path
       id="path3936"
       d="m 218.594,169.762 c 0.046,8.191 1.861,17.387 0.312,26.101 -2.091,3.952 -6.193,4.37 -9.729,5.967 -4.89,-0.767 -9.002,-3.978 -10.963,-8.552 -1.255,-9.946 0.468,-19.576 0.785,-29.526 l 19.595,6.01 z"
       inkscape:connector-curvature="0"
       style="clip-rule:evenodd;fill:#ffffff;fill-rule:evenodd;stroke:#000000;stroke-width:3;stroke-linecap:round" /><g
       transform="matrix(-1,0,0,-1,259.69023,199.10525)"
       id="g3938"><ellipse
         style="clip-rule:evenodd;fill-rule:evenodd"
         id="ellipse3940"
         ry="16.062"
         rx="14.829"
         cy="95.403999"
         cx="107.324" /><ellipse
         style="clip-rule:evenodd;fill:#ffffff;fill-rule:evenodd"
         id="ellipse3942"
         ry="4.0819998"
         rx="3.4960001"
         cy="99.028999"
         cx="114.069" /></g><g
       transform="matrix(-1,0,0,-1,469.06861,197.03186)"
       id="g3944"><ellipse
         style="clip-rule:evenodd;fill-rule:evenodd"
         id="ellipse3946"
         ry="16.062"
         rx="14.582"
         cy="91.403999"
         cx="231.571" /><ellipse
         style="clip-rule:evenodd;fill:#ffffff;fill-rule:evenodd"
         id="ellipse3948"
         ry="4.0819998"
         rx="3.438"
         cy="95.028999"
         cx="238.20399" /></g><path
       id="path3950"
       d="m 176.217,168.87 c -6.47,15.68 3.608,47.035 21.163,23.908 -1.255,-9.946 0.468,-19.576 0.785,-29.526 l -21.948,5.618 z"
       inkscape:connector-curvature="0"
       style="clip-rule:evenodd;fill:#ffffff;fill-rule:evenodd;stroke:#000000;stroke-width:3;stroke-linecap:round" /><g
       id="g3952"><path
         id="path3954"
         d="m 178.431,138.673 c -12.059,1.028 -21.916,15.366 -15.646,26.709 8.303,15.024 26.836,-1.329 38.379,0.203 13.285,0.272 24.17,14.047 34.84,2.49 11.867,-12.854 -5.109,-25.373 -18.377,-30.97 l -39.196,1.568 z"
         inkscape:connector-curvature="0"
         style="clip-rule:evenodd;fill:#f6d2a2;fill-rule:evenodd;stroke:#231f20;stroke-width:3;stroke-linecap:round" /><path
         id="path3956"
         d="m 176.913,138.045 c -0.893,-20.891 38.938,-23.503 43.642,-6.016 4.692,17.446 -41.681,21.498 -43.642,6.016 -1.565,-12.363 0,0 0,0 z"
         inkscape:connector-curvature="0"
         style="clip-rule:evenodd;fill-rule:evenodd" /></g></g></svg>