<?xml version="1.0" encoding="UTF-8" standalone="no"?>
<!-- Created with Inkscape (http://www.inkscape.org/) -->

<svg
   xmlns:dc="http://purl.org/dc/elements/1.1/"
   xmlns:cc="http://creativecommons.org/ns#"
   xmlns:rdf="http://www.w3.org/1999/02/22-rdf-syntax-ns#"
   xmlns:svg="http://www.w3.org/2000/svg"
   xmlns="http://www.w3.org/2000/svg"
   xmlns:sodipodi="http://sodipodi.sourceforge.net/DTD/sodipodi-0.dtd"
   xmlns:inkscape="http://www.inkscape.org/namespaces/inkscape"
   width="210mm"
   height="297mm"
   viewBox="0 0 744.09448819 1052.3622047"
   id="svg3352"
   version="1.1"
   inkscape:version="0.91 r13725"
   sodipodi:docname="hammer_right_up.svg">
  <defs
     id="defs3354" />
  <sodipodi:namedview
     id="base"
     pagecolor="#ffffff"
     bordercolor="#666666"
     borderopacity="1.0"
     inkscape:pageopacity="0.0"
     inkscape:pageshadow="2"
     inkscape:zoom="1.70625"
     inkscape:cx="119.74075"
     inkscape:cy="940.43882"
     inkscape:document-units="px"
     inkscape:current-layer="layer1"
     showgrid="false"
     inkscape:window-width="1362"
     inkscape:window-height="727"
     inkscape:window-x="0"
     inkscape:window-y="20"
     inkscape:window-maximized="0" />
  <metadata
     id="metadata3357">
    <rdf:RDF>
      <cc:Work
         rdf:about="">
        <dc:format>image/svg+xml</dc:format>
        <dc:type
           rdf:resource="http://purl.org/dc/dcmitype/StillImage" />
        <dc:title></dc:title>
      </cc:Work>
    </rdf:RDF>
  </metadata>
  <g
     inkscape:label="Layer 1"
     inkscape:groupmode="layer"
     id="layer1">
    <g
       id="g3548"
       transform="matrix(0.23514211,-0.971961,0.971961,0.23514211,-11.82269,253.60269)">
      <path
         inkscape:connector-curvature="0"
         id="path3544"
         d="M 139.72244,153.15374 C 157.6094,83.820928 155.45725,83.736062 155.45725,83.736062 l -4.62561,-0.46572 c 0,0 -3.22241,1.037602 -10.36759,20.177658 -7.14516,19.14007 -30.35336,117.7263 -30.40414,125.05861 -0.0508,7.33236 0.44629,19.59686 6.82167,3.54274 6.37544,-16.05412 22.84086,-78.89561 22.84086,-78.89561 z"
         style="fill:#d45500;fill-rule:evenodd;stroke:#000000;stroke-width:1.34906518px;stroke-linecap:butt;stroke-linejoin:miter;stroke-opacity:1" />
      <path
         inkscape:connector-curvature="0"
         id="path3540"
         d="m 116.28724,39.534662 c -19.614583,0.889223 -31.202905,63.145668 -14.54226,67.208258 20.43787,4.98367 21.80015,-9.255992 35.97039,-8.544048 14.17026,0.711958 19.3481,-2.492673 30.79331,11.390368 11.4452,13.88306 29.15727,4.27295 29.42977,-1.77863 0.27251,-6.05158 16.62344,-45.565895 2.99819,-52.329433 -13.62524,-6.763538 -20.16481,-1.779827 -28.61245,3.559809 -8.44766,5.339635 -30.52143,0.356984 -33.79148,-0.710943 -3.27006,-1.067927 -7.90218,-8.54405 -7.90218,-8.54405 -4.68367,-6.974899 -9.21485,-10.016618 -13.40307,-10.246235 -0.3153,-0.01729 -0.62888,-0.0192 -0.94022,-0.0051 z"
         style="fill:#800000;fill-rule:evenodd;stroke:#000000;stroke-width:1.14150333px;stroke-linecap:butt;stroke-linejoin:miter;stroke-opacity:1" />
    </g>
  </g>
</svg>
